<?xml version="1.0" standalone="no"?>
<!DOCTYPE svg PUBLIC "-//W3C//DTD SVG 20010904//EN"
 "http://www.w3.org/TR/2001/REC-SVG-20010904/DTD/svg10.dtd">
<svg version="1.0" xmlns="http://www.w3.org/2000/svg"
 width="10240.000000pt" height="2006.000000pt" viewBox="0 0 10240.000000 2006.000000"
 preserveAspectRatio="xMidYMid meet">

<g transform="translate(0.000000,2006.000000) scale(0.100000,-0.100000)"
fill="#fff" stroke="none">
<path d="M9730 20054 c-540 -25 -916 -63 -1345 -135 -653 -109 -1252 -270
-1875 -501 -595 -221 -1256 -547 -1802 -888 -1757 -1099 -3148 -2747 -3946
-4675 -280 -676 -495 -1423 -617 -2137 -99 -584 -138 -1057 -139 -1668 0 -486
19 -804 75 -1255 217 -1746 892 -3414 1945 -4805 801 -1058 1799 -1945 2940
-2612 1999 -1169 4308 -1609 6584 -1257 937 145 1851 420 2700 813 1684 780
3134 2033 4156 3591 857 1309 1396 2786 1579 4330 53 453 60 582 60 1165 0
556 -7 694 -51 1090 -294 2658 -1603 5055 -3674 6725 -1127 909 -2462 1573
-3865 1924 -589 147 -1124 231 -1747 276 -203 14 -820 26 -978 19z m3520
-3784 c290 -18 579 -59 855 -121 332 -75 429 -119 455 -209 7 -23 -10 -354
-55 -1109 -70 -1153 -66 -1115 -124 -1184 -13 -15 -42 -37 -64 -49 -40 -20
-45 -20 -177 -7 -178 18 -659 19 -800 0 -441 -56 -875 -202 -1145 -384 -133
-90 -340 -302 -437 -447 -120 -180 -221 -407 -272 -615 -68 -278 -67 -632 4
-930 24 -105 79 -275 88 -275 4 0 31 46 61 101 334 619 875 1055 1528 1234
330 91 642 135 1010 142 379 8 606 -16 901 -92 957 -250 1656 -983 2037 -2140
304 -919 321 -1848 50 -2660 -335 -1004 -1104 -1758 -2166 -2123 -814 -280
-1686 -345 -2429 -181 -1592 352 -2830 1685 -3535 3804 -210 634 -359 1320
-419 1930 -53 542 -46 1129 19 1606 122 884 432 1650 911 2248 712 889 1774
1383 3149 1464 125 8 405 6 555 -3z m-7110 -1889 c19 -10 43 -31 52 -47 9 -16
699 -2303 1532 -5083 1072 -3573 1516 -5067 1516 -5100 0 -90 -61 -177 -145
-209 -25 -9 -700 -209 -2353 -696 -230 -68 -268 -74 -337 -55 -52 15 -127 90
-148 149 -9 25 -514 1699 -1123 3720 -608 2021 -1109 3678 -1113 3682 -4 5
-248 -63 -541 -149 -575 -168 -614 -176 -680 -137 -18 10 -41 30 -51 44 -11
14 -145 450 -300 970 -213 716 -282 958 -282 1000 -1 67 26 124 82 171 26 23
625 306 1867 883 1006 468 1845 856 1864 862 51 19 120 17 160 -5z"/>
<path d="M13639 9750 c-557 -99 -1056 -471 -1165 -870 -24 -89 -25 -272 -1
-360 104 -394 528 -632 1037 -581 221 22 443 84 637 176 293 139 510 359 588
595 71 215 56 415 -45 626 -109 227 -325 379 -601 424 -101 16 -330 11 -450
-10z"/>
<path d="M97545 16599 c-1516 -105 -2707 -681 -3446 -1664 -419 -559 -660
-1204 -741 -1985 -19 -188 -16 -688 6 -875 98 -838 402 -1484 975 -2069 344
-350 732 -631 1279 -925 330 -177 708 -344 1417 -626 549 -219 706 -285 886
-375 231 -116 341 -191 444 -301 81 -88 109 -152 113 -259 17 -407 -371 -700
-925 -700 -126 0 -333 28 -548 75 -587 126 -1351 422 -1973 764 -129 70 -171
85 -220 76 -66 -12 -107 -48 -146 -127 -19 -40 -296 -659 -615 -1375 -647
-1449 -609 -1349 -551 -1449 86 -151 556 -465 1010 -675 1336 -618 3055 -834
4445 -558 1399 278 2472 1027 3020 2109 218 430 344 867 401 1392 24 211 24
667 1 875 -97 871 -411 1538 -1006 2134 -375 375 -800 671 -1401 974 -370 186
-628 297 -1335 575 -547 215 -662 263 -850 355 -282 138 -452 270 -525 406
-29 55 -35 76 -38 149 -14 295 193 532 548 624 189 50 350 57 550 26 630 -98
1524 -437 2328 -882 150 -83 203 -100 267 -84 39 10 98 69 123 123 12 26 285
640 608 1363 646 1450 611 1358 560 1457 -43 84 -124 148 -408 321 -968 590
-2188 1003 -3308 1118 -184 18 -753 27 -945 13z"/>
<path d="M23675 16331 c-80 -20 -161 -97 -189 -178 -15 -42 -16 -621 -16
-6142 0 -5943 1 -6097 19 -6137 28 -61 84 -119 141 -143 l49 -21 1778 2 1778
3 40 22 c47 25 95 74 121 123 18 34 19 108 22 2118 l2 2082 1285 0 1285 0 0
-2077 c0 -1999 1 -2080 19 -2119 28 -61 75 -109 131 -133 l49 -21 1783 2 1783
3 47 27 c61 37 105 91 123 153 13 44 15 808 13 6145 l-3 6095 -23 47 c-27 54
-87 112 -141 136 -33 16 -184 17 -1790 20 -1936 3 -1821 6 -1896 -60 -20 -17
-48 -52 -63 -77 l-27 -46 -5 -2435 -5 -2435 -1282 -3 -1283 -2 0 2408 c0 2697
6 2473 -73 2559 -23 26 -62 56 -87 67 l-45 21 -1755 2 c-965 0 -1768 -2 -1785
-6z"/>
<path d="M39534 16325 c-108 -23 -254 -109 -308 -180 -20 -25 -601 -1723
-2106 -6146 -1144 -3362 -2080 -6122 -2080 -6136 0 -41 26 -89 66 -119 l37
-29 1906 0 1906 0 67 32 c77 36 148 98 184 159 16 27 127 400 299 1001 l273
958 1723 0 1723 0 272 -955 c150 -525 282 -974 294 -997 32 -61 109 -129 188
-166 l67 -32 1907 0 1907 0 27 21 c44 32 66 68 70 115 4 38 -284 890 -2075
6153 -1637 4810 -2085 6116 -2108 6145 -41 51 -165 132 -248 161 l-70 25
-1930 2 c-1576 1 -1941 -1 -1991 -12z m2465 -6107 c270 -950 491 -1730 491
-1733 0 -3 -446 -5 -991 -5 -939 0 -990 1 -985 18 3 9 224 787 491 1727 267
941 488 1717 491 1725 4 8 8 11 10 5 1 -5 224 -787 493 -1737z"/>
<path d="M49222 16321 c-61 -21 -102 -57 -140 -121 l-27 -45 -3 -6123 c-2
-5934 -1 -6125 16 -6165 28 -63 70 -107 127 -133 l50 -24 1680 1 c1260 0 1688
3 1712 12 62 23 119 73 146 128 l27 53 0 2865 c0 2416 2 2863 14 2851 7 -8
719 -1277 1581 -2820 862 -1543 1588 -2835 1612 -2872 51 -78 122 -138 213
-182 l65 -31 1655 -3 c1819 -2 1704 -6 1782 58 20 17 48 53 62 82 l26 52 0
6115 c0 5897 -1 6117 -19 6156 -27 60 -67 103 -125 133 l-51 27 -1685 0 -1685
0 -40 -22 c-47 -25 -105 -84 -131 -133 -18 -34 -19 -131 -24 -2905 l-5 -2870
-142 255 c-79 140 -797 1432 -1596 2870 -1590 2860 -1487 2684 -1619 2749
-129 63 -44 61 -1813 60 -1535 0 -1612 -1 -1663 -18z"/>
<path d="M62066 16324 c-70 -22 -149 -103 -170 -174 -15 -49 -16 -617 -16
-6129 0 -4105 3 -6088 10 -6113 17 -59 71 -130 124 -163 l49 -30 2281 -3
c1578 -2 2344 0 2486 8 782 42 1509 187 2164 431 1217 454 2206 1241 2874
2289 249 391 483 888 631 1342 163 501 263 1003 318 1598 22 244 25 1002 5
1230 -72 812 -205 1400 -464 2053 -80 201 -259 570 -368 757 -972 1673 -2700
2696 -4870 2885 -365 31 -656 35 -2825 34 -1908 0 -2186 -2 -2229 -15z m4872
-3302 c247 -39 443 -102 654 -209 211 -107 373 -229 559 -419 193 -198 316
-377 454 -659 191 -388 303 -820 344 -1328 14 -162 14 -605 1 -762 -71 -836
-336 -1509 -780 -1978 -325 -343 -716 -553 -1195 -639 -113 -20 -158 -22 -722
-25 l-603 -4 0 3026 0 3027 578 -5 c521 -4 590 -7 710 -25z"/>
<path d="M74455 16331 c-89 -22 -171 -96 -199 -179 -14 -41 -16 -655 -16
-6143 l0 -6097 28 -53 c32 -62 104 -121 166 -138 30 -9 979 -11 3531 -9 l3490
3 45 27 c61 36 115 94 138 148 19 44 20 87 23 1480 l4 1435 -28 58 c-31 61
-74 101 -134 123 -31 11 -348 13 -1760 14 l-1723 0 0 4563 0 4562 -21 45 c-26
58 -72 105 -134 138 l-50 27 -1665 2 c-916 0 -1678 -2 -1695 -6z"/>
<path d="M83317 16329 c-82 -19 -147 -77 -166 -146 -8 -26 -11 -1910 -11
-6131 l0 -6093 26 -51 c34 -67 108 -144 166 -174 l47 -24 4302 0 c3168 0 4312
3 4339 11 61 18 131 78 162 138 l28 53 0 1447 c0 1377 -1 1448 -19 1486 -21
46 -84 107 -138 132 -36 17 -170 18 -2575 21 l-2538 2 0 780 0 780 1943 2
1942 3 56 26 c65 31 120 82 151 142 l21 42 5 1318 c5 1473 10 1372 -65 1438
-73 63 82 59 -2078 59 l-1975 0 0 730 0 730 2423 0 c2733 0 2480 -8 2567 80
86 85 80 -41 80 1570 l0 1426 -26 52 c-30 61 -88 114 -153 139 -44 17 -224 18
-4261 20 -2447 0 -4231 -3 -4253 -8z"/>
</g>
</svg>
