<?xml version="1.0" standalone="no"?>
<!DOCTYPE svg PUBLIC "-//W3C//DTD SVG 20010904//EN"
 "http://www.w3.org/TR/2001/REC-SVG-20010904/DTD/svg10.dtd">
<svg version="1.0" xmlns="http://www.w3.org/2000/svg"
 width="8000.000000pt" height="1568.000000pt" viewBox="0 0 8000.000000 1568.000000"
 preserveAspectRatio="xMidYMid meet">

<g transform="translate(0.000000,1568.000000) scale(0.100000,-0.100000)"
fill="#ed198b" stroke="none">
<path d="M7655 15474 c-33 -2 -139 -8 -235 -14 -599 -37 -1297 -177 -1908
-384 -1755 -595 -3239 -1815 -4170 -3426 -104 -180 -316 -605 -401 -805 -314
-736 -499 -1469 -588 -2335 -26 -251 -26 -1086 0 -1335 52 -507 125 -914 238
-1330 443 -1626 1392 -3043 2727 -4069 672 -516 1452 -928 2262 -1194 580
-191 1198 -314 1830 -364 217 -17 892 -17 1110 0 405 32 915 113 1275 203 703
176 1361 440 1980 796 1079 620 2004 1510 2660 2558 720 1150 1120 2455 1164
3800 63 1873 -548 3676 -1734 5120 -986 1201 -2353 2092 -3838 2501 -500 138
-968 222 -1442 259 -179 15 -798 27 -930 19z m1916 -2515 c749 -76 1323 -537
1664 -1334 101 -237 184 -521 220 -755 22 -139 30 -523 16 -716 -25 -341 -64
-550 -225 -1184 -62 -245 -271 -1072 -466 -1838 -194 -766 -350 -1395 -347
-1398 3 -3 526 180 1164 407 637 227 1168 414 1179 417 18 3 25 -4 42 -50 158
-429 443 -1251 436 -1257 -5 -5 -953 -344 -2106 -755 -1153 -410 -2103 -749
-2111 -752 -10 -4 -67 144 -225 588 l-210 593 414 1730 c227 952 456 1906 508
2120 148 610 213 959 236 1263 36 471 -115 996 -347 1213 -68 64 -118 94 -197
118 -118 36 -235 26 -376 -34 -309 -130 -425 -366 -376 -770 22 -184 74 -380
183 -688 52 -148 91 -272 87 -276 -8 -7 -1566 -564 -1602 -573 -23 -6 -238
619 -297 864 -76 320 -99 525 -92 835 5 243 22 373 73 568 121 465 394 840
817 1124 425 284 1040 500 1552 544 93 8 290 6 386 -4z m-3292 -5621 c1172
-3289 1441 -4054 1430 -4061 -30 -19 -1654 -595 -1660 -589 -5 5 -2140 5992
-2291 6425 -10 27 -11 26 -186 -144 -97 -94 -255 -242 -352 -327 -96 -86 -227
-207 -291 -270 -64 -62 -119 -110 -122 -105 -12 20 -438 1225 -435 1233 2 4
100 115 219 246 470 518 718 825 869 1078 l65 108 640 228 c352 126 647 229
656 229 11 1 363 -975 1458 -4051z"/>
<path d="M51210 12829 c-612 -22 -1200 -174 -1735 -448 -373 -191 -613 -371
-898 -671 -332 -351 -542 -712 -670 -1156 -151 -519 -176 -1192 -62 -1698 94
-418 276 -749 579 -1052 237 -236 497 -415 891 -612 446 -222 772 -341 1859
-677 699 -215 960 -327 1107 -474 77 -78 114 -148 130 -251 18 -121 -10 -225
-85 -308 -122 -135 -319 -185 -726 -186 -456 0 -811 64 -1360 247 -558 185
-1066 416 -1529 694 -113 68 -208 123 -211 123 -4 -1 -1138 -2309 -1147 -2337
-3 -9 211 -130 384 -217 814 -406 1899 -731 2873 -860 382 -51 521 -60 945
-60 423 -1 544 6 852 50 677 96 1225 289 1701 601 458 301 808 744 1005 1273
137 369 204 888 178 1375 -40 734 -221 1194 -646 1643 -302 320 -722 578
-1389 854 -342 142 -589 225 -1645 553 -413 128 -504 161 -664 241 -199 99
-301 188 -360 311 -31 65 -32 73 -32 193 0 121 1 128 32 191 42 85 102 140
206 190 245 117 625 132 1097 43 509 -96 1295 -408 1855 -737 88 -52 163 -92
167 -88 13 11 1149 2193 1144 2198 -25 26 -727 345 -1056 480 -843 347 -1659
548 -2305 569 -82 2 -181 6 -220 7 -38 2 -158 0 -265 -4z"/>
<path d="M59680 12828 c-398 -13 -798 -87 -1189 -217 -693 -232 -1256 -625
-1659 -1158 -311 -411 -488 -872 -559 -1453 -24 -204 -24 -702 0 -880 77 -547
255 -930 597 -1284 251 -260 545 -461 980 -673 415 -202 761 -327 1767 -637
494 -153 698 -226 888 -320 206 -101 297 -181 356 -311 19 -42 23 -68 23 -165
1 -103 -2 -120 -23 -160 -38 -71 -72 -108 -141 -154 -135 -89 -293 -119 -645
-119 -487 -1 -886 77 -1515 298 -503 176 -998 411 -1453 690 -70 43 -130 76
-132 73 -9 -8 -1145 -2329 -1145 -2338 0 -17 398 -225 651 -340 421 -191 1038
-402 1549 -530 480 -121 932 -199 1425 -246 227 -22 919 -26 1120 -6 829 81
1473 286 2005 637 292 193 517 413 706 691 286 422 429 850 475 1429 15 183 6
661 -16 815 -82 600 -275 1007 -657 1392 -232 232 -482 405 -867 597 -473 237
-852 378 -1846 686 -734 227 -884 282 -1069 392 -201 120 -300 290 -282 485
20 217 158 341 455 409 112 26 431 37 581 20 273 -31 502 -82 795 -177 509
-166 951 -364 1410 -632 66 -39 121 -69 123 -67 2 2 261 497 577 1101 l573
1099 -76 39 c-120 61 -478 225 -687 316 -573 248 -877 357 -1385 496 -599 165
-1094 223 -1710 202z"/>
<path d="M31525 12803 c-517 -20 -974 -104 -1440 -263 -447 -152 -923 -403
-1313 -692 -944 -698 -1644 -1761 -1897 -2879 -135 -599 -155 -1275 -54 -1884
280 -1698 1414 -3148 2977 -3805 912 -383 2035 -467 3067 -229 621 143 1239
433 1791 840 343 253 729 639 1006 1005 455 604 778 1333 913 2069 58 312 69
458 69 870 0 412 -11 558 -69 870 -177 963 -649 1894 -1321 2606 -350 370
-712 654 -1149 899 -658 369 -1330 555 -2125 590 -222 9 -289 10 -455 3z m600
-2401 c653 -116 1121 -450 1453 -1037 177 -314 295 -701 343 -1125 16 -143 16
-537 0 -690 -122 -1151 -715 -1961 -1602 -2185 -200 -51 -345 -68 -594 -68
-376 -1 -637 45 -908 162 -589 253 -1025 789 -1222 1503 -46 167 -85 368 -106
553 -17 142 -17 547 0 695 63 575 239 1053 523 1422 289 374 681 631 1125 739
198 48 312 58 613 54 205 -3 290 -8 375 -23z"/>
<path d="M17864 12733 c4 -10 749 -1473 1657 -3251 l1649 -3234 0 -1624 0
-1624 1325 0 1325 0 0 1611 0 1611 1616 3132 c889 1722 1648 3191 1686 3264
l70 132 -1457 -2 -1457 -3 -759 -1695 c-1035 -2312 -1021 -2281 -1027 -2276
-2 3 -395 898 -872 1988 l-868 1983 -1447 3 c-1376 2 -1447 1 -1441 -15z"/>
<path d="M37660 10228 c0 -2393 5 -2835 30 -3111 143 -1558 726 -2730 1713
-3438 707 -509 1580 -759 2646 -759 841 0 1532 144 2149 447 739 363 1290 920
1686 1703 260 512 451 1169 526 1800 46 391 44 221 47 3138 l4 2742 -1336 0
-1335 0 0 -2589 c0 -1670 -4 -2635 -10 -2718 -29 -365 -88 -670 -184 -948
-121 -353 -255 -585 -451 -780 -264 -263 -532 -382 -942 -416 -221 -19 -478 8
-660 67 -618 202 -1038 837 -1163 1759 -40 295 -40 309 -40 3018 l0 2607
-1340 0 -1340 0 0 -2522z"/>
<path d="M64960 7875 l0 -4875 3470 0 3470 0 0 1165 0 1165 -2130 0 -2130 0 0
770 0 770 1768 2 1767 3 3 1083 2 1082 -1770 0 -1770 0 0 690 0 690 2070 0
2070 0 0 1165 0 1165 -3410 0 -3410 0 0 -4875z"/>
<path d="M73160 7875 l0 -4875 1340 0 1340 0 0 1815 0 1815 1630 0 1630 0 0
1085 0 1085 -1630 0 -1630 0 0 810 0 810 2005 0 2005 0 0 1165 0 1165 -3345 0
-3345 0 0 -4875z"/>
</g>
</svg>
